{"accessors":[{"bufferView":2,"componentType":5126,"count":7592,"max":[3.1607069969177246,11.269304275512695,8.401564598083496],"min":[-4.369741916656494,-11.380634307861328,-7.614500999450684],"type":"VEC3"},{"bufferView":2,"byteOffset":91104,"componentType":5126,"count":7592,"max":[1,1,1],"min":[-1,-1,-1],"type":"VEC3"},{"bufferView":1,"componentType":5126,"count":7592,"max":[0.8599503636360168,0.9998736381530762],"min":[0.0001971432939171791,0.0000464320182800293],"type":"VEC2"},{"bufferView":1,"byteOffset":60736,"componentType":5126,"count":7592,"max":[0.8599503636360168,0.9998736381530762],"min":[0.0001971432939171791,0.0000464320182800293],"type":"VEC2"},{"bufferView":1,"byteOffset":121472,"componentType":5126,"count":7592,"max":[0.8599503636360168,0.9998736381530762],"min":[0.0001971432939171791,0.0000464320182800293],"type":"VEC2"},{"bufferView":0,"componentType":5125,"count":40848,"type":"SCALAR"}],"asset":{"extras":{"author":"gavinchan180 (https://sketchfab.com/gavinchan180)","license":"CC-BY-4.0 (http://creativecommons.org/licenses/by/4.0/)","source":"https://sketchfab.com/3d-models/gumball-dff139ac0d184a26a83572b1d84fbead","title":"Gumball"},"generator":"Sketchfab-12.68.0","version":"2.0"},"bufferViews":[{"buffer":0,"byteLength":163392,"name":"floatBufferViews","target":34963},{"buffer":0,"byteLength":182208,"byteOffset":163392,"byteStride":8,"name":"floatBufferViews","target":34962},{"buffer":0,"byteLength":182208,"byteOffset":345600,"byteStride":12,"name":"floatBufferViews","target":34962}],"buffers":[{"byteLength":527808,"uri":"data:application/octet-stream;base64,"}],"extensionsRequired":["KHR_materials_pbrSpecularGlossiness"],"extensionsUsed":["KHR_materials_pbrSpecularGlossiness"],"images":[{"uri":"data:application/octet-stream;base64,"},{"uri":"data:application/octet-stream;base64,"}],"materials":[{"alphaMode":"MASK","doubleSided":true,"extensions":{"KHR_materials_pbrSpecularGlossiness":{"diffuseFactor":[1,1,1,1],"diffuseTexture":{"index":0},"glossinessFactor":1,"specularFactor":[1,1,1],"specularGlossinessTexture":{"index":1}}},"name":"material"}],"meshes":[{"name":"Object_0","primitives":[{"attributes":{"NORMAL":1,"POSITION":0,"TEXCOORD_0":2,"TEXCOORD_1":3,"TEXCOORD_2":4},"indices":5,"material":0,"mode":4}]}],"nodes":[{"children":[1],"matrix":[1,0,0,0,0,2.220446049250313e-16,-1,0,0,1,2.220446049250313e-16,0,0,0,0,1],"name":"Sketchfab_model"},{"children":[2],"name":"root"},{"children":[3],"matrix":[1,0,0,0,0,2.220446049250313e-16,1,0,0,-1,2.220446049250313e-16,0,0,0,0,1],"name":"GLTF_SceneRootNode"},{"children":[4],"name":"root_0"},{"children":[5],"matrix":[0.022604916244745255,0,0,0,0,0.022604916244745255,0,0,0,0,0.022604916244745255,0,0.01366502046585083,0.0012583029456436634,0.2471037358045578,1],"name":"node_id4_1"},{"mesh":0,"name":"Object_5"}],"samplers":[{"magFilter":9729,"minFilter":9987,"wrapS":10497,"wrapT":10497}],"scene":0,"scenes":[{"name":"Sketchfab_Scene","nodes":[0]}],"textures":[{"sampler":0,"source":0},{"sampler":0,"source":1}]}